<svg width="25" height="24" viewBox="0 0 25 24" fill="none" xmlns="http://www.w3.org/2000/svg">
<g id="YoutubeLogo">
<path id="Vector" d="M15.9331 12L11.4331 9V15L15.9331 12Z" stroke="white" stroke-width="1.5" stroke-linecap="round" stroke-linejoin="round"/>
<path id="Vector_2" d="M3.18311 12C3.18311 14.7895 3.47131 16.4263 3.69039 17.2675C3.74896 17.4972 3.86142 17.7097 4.01847 17.8873C4.17552 18.0649 4.37263 18.2026 4.59347 18.2888C7.73193 19.4949 12.9331 19.4618 12.9331 19.4618C12.9331 19.4618 18.1342 19.4949 21.2727 18.2888C21.4936 18.2026 21.6907 18.0649 21.8477 17.8873C22.0048 17.7097 22.1172 17.4972 22.1758 17.2675C22.3949 16.4263 22.6831 14.7896 22.6831 12C22.6831 9.21039 22.3949 7.57368 22.1758 6.73248C22.1173 6.50273 22.0048 6.29025 21.8477 6.11264C21.6907 5.93502 21.4936 5.79738 21.2727 5.71113C18.1343 4.50506 12.9331 4.53818 12.9331 4.53818C12.9331 4.53818 7.73199 4.50506 4.5935 5.71112C4.37266 5.79737 4.17555 5.93501 4.0185 6.11262C3.86145 6.29024 3.74898 6.50272 3.69041 6.73246C3.47132 7.57366 3.18311 9.21039 3.18311 12Z" stroke="white" stroke-width="1.5" stroke-linecap="round" stroke-linejoin="round"/>
</g>
</svg>
